<svg enable-background="new 0 0 500 500" height="500" viewBox="0 0 500 500" width="500" xmlns="http://www.w3.org/2000/svg" xmlns:xlink="http://www.w3.org/1999/xlink">
	<clipPath id="a0">
		<path d="m38.001 423.401c0 21.319 17.282 38.599 38.598 38.599 21.319 0 38.604-17.28 38.604-38.599 0-21.315-17.285-38.599-38.604-38.599-21.316.001-38.598 17.284-38.598 38.599m154.398-38.598v77.194h226.251c23.939 0 43.348-19.408 43.348-43.347v-33.848h-269.599zm-154.398-96.2h269.6v-77.198h-269.6zm346.8-38.601c0 21.318 17.281 38.601 38.6 38.601s38.598-17.282 38.598-38.601-17.279-38.602-38.598-38.602-38.6 17.283-38.6 38.602m-346.8-173.398c0 21.314 17.281 38.598 38.597 38.598 21.319 0 38.604-17.283 38.604-38.598.001-21.318-17.285-38.604-38.603-38.604-21.316 0-38.598 17.286-38.598 38.604m154.398-38.604v77.202h269.599v-33.853c0-23.938-19.408-43.349-43.348-43.349z"></path>
	</clipPath>
	<linearGradient id="b0" gradientTransform="matrix(150 0 0 -150 175 75250)" gradientUnits="userSpaceOnUse" x1="-.9131" x2="1.9136" y1="500" y2="500"><stop offset="0" stop-color="#f0f"></stop><stop offset="1" stop-color="#00f"></stop></linearGradient><path clip-path="url(#a0)" d="m38.001 38h423.997v424h-423.997z" fill="url(#b0)"></path>
</svg>